<svg version="1.1" viewBox="0.0 0.0 960.0 720.0" fill="none" stroke="none" stroke-linecap="square" stroke-miterlimit="10" xmlns:xlink="http://www.w3.org/1999/xlink" xmlns="http://www.w3.org/2000/svg"><clipPath id="p.0"><path d="m0 0l960.0 0l0 720.0l-960.0 0l0 -720.0z" clip-rule="nonzero"/></clipPath><g clip-path="url(#p.0)"><path fill="#000000" fill-opacity="0.0" d="m0 0l960.0 0l0 720.0l-960.0 0z" fill-rule="evenodd"/><path fill="#000000" fill-opacity="0.0" d="m63.157482 129.12073l631.5906 0l0 96.944885l-631.5906 0z" fill-rule="evenodd"/><path fill="#000000" d="m90.84498 179.27948q-7.71875 -2.21875 -11.234375 -5.453125q-3.515625 -3.234375 -3.515625 -7.984375q0 -5.375 4.296875 -8.890625q4.296875 -3.515625 11.171875 -3.515625q4.6875 0 8.359375 1.8125q3.671875 1.8125 5.6875 5.0q2.015625 3.1875 2.015625 6.96875l-6.03125 0q0 -4.125 -2.625 -6.484375q-2.625 -2.359375 -7.40625 -2.359375q-4.4375 0 -6.921875 1.953125q-2.484375 1.953125 -2.484375 5.421875q0 2.78125 2.359375 4.703125q2.359375 1.921875 8.03125 3.515625q5.671875 1.59375 8.875 3.515625q3.203125 1.921875 4.75 4.484375q1.546875 2.5625 1.546875 6.03125q0 5.53125 -4.3125 8.859375q-4.3125 3.328125 -11.53125 3.328125q-4.6875 0 -8.75 -1.796875q-4.0625 -1.796875 -6.265625 -4.921875q-2.203125 -3.125 -2.203125 -7.09375l6.03125 0q0 4.125 3.046875 6.515625q3.046875 2.390625 8.140625 2.390625q4.75 0 7.28125 -1.9375q2.53125 -1.9375 2.53125 -5.28125q0 -3.34375 -2.34375 -5.171875q-2.34375 -1.828125 -8.5 -3.609375zm59.562508 -1.0q0 6.6875 -2.25 11.671875q-2.25 4.984375 -6.375 7.609375q-4.125 2.625 -9.625 2.625q-5.3750076 0 -9.531258 -2.640625q-4.15625 -2.640625 -6.453125 -7.53125q-2.296875 -4.890625 -2.359375 -11.328125l0 -3.28125q0 -6.5625 2.28125 -11.59375q2.28125 -5.03125 6.453125 -7.703125q4.171875 -2.671875 9.546883 -2.671875q5.46875 0 9.640625 2.640625q4.171875 2.640625 6.421875 7.65625q2.25 5.015625 2.25 11.671875l0 2.875zm-5.96875 -2.9375q0 -8.09375 -3.25 -12.421875q-3.25 -4.328125 -9.09375 -4.328125q-5.6875076 0 -8.953133 4.328125q-3.265625 4.328125 -3.359375 12.015625l0 3.34375q0 7.84375 3.296875 12.328125q3.296875 4.484375 9.078133 4.484375q5.8125 0 9.0 -4.234375q3.1875 -4.234375 3.28125 -12.140625l0 -3.375zm42.6875 7.6875q0 7.75 -3.5625 12.453125q-3.5625 4.703125 -9.5625 4.703125q-6.40625 0 -9.90625 -4.53125l-0.28125 3.90625l-5.3125 0l0 -48.0l5.78125 0l0 17.90625q3.5 -4.34375 9.65625 -4.34375q6.15625 0 9.671875 4.65625q3.515625 4.65625 3.515625 12.75l0 0.5zm-5.78125 -0.65625q0 -5.90625 -2.28125 -9.125q-2.28125 -3.21875 -6.5625 -3.21875q-5.71875 0 -8.21875 5.3125l0 14.625q2.65625 5.3125 8.28125 5.3125q4.15625 0 6.46875 -3.21875q2.3125 -3.21875 2.3125 -9.6875zm19.03125 -16.625l0 37.71875q0 9.75 -8.84375 9.75q-1.90625 0 -3.53125 -0.5625l0 -4.625q1.0 0.25 2.625 0.25q1.9375 0 2.953125 -1.046875q1.015625 -1.046875 1.015625 -3.640625l0 -37.84375l5.78125 0zm-6.375 -8.96875q0 -1.375 0.859375 -2.359375q0.859375 -0.984375 2.515625 -0.984375q1.6875 0 2.5625 0.96875q0.875 0.96875 0.875 2.375q0 1.40625 -0.875 2.34375q-0.875 0.9375 -2.5625 0.9375q-1.6875 0 -2.53125 -0.9375q-0.84375 -0.9375 -0.84375 -2.34375zm29.71875 43.40625q-6.875 0 -11.1875 -4.515625q-4.3125 -4.515625 -4.3125 -12.078125l0 -1.0625q0 -5.03125 1.921875 -8.984375q1.921875 -3.953125 5.375 -6.1875q3.453125 -2.234375 7.484375 -2.234375q6.59375 0 10.25 4.34375q3.65625 4.34375 3.65625 12.4375l0 2.40625l-22.90625 0q0.125 5.0 2.921875 8.078125q2.796875 3.078125 7.109375 3.078125q3.0625 0 5.1875 -1.25q2.125 -1.25 3.71875 -3.3125l3.53125 2.75q-4.25 6.53125 -12.75 6.53125zm-0.71875 -30.3125q-3.5 0 -5.875 2.546875q-2.375 2.546875 -2.9375 7.140625l16.9375 0l0 -0.4375q-0.25 -4.40625 -2.375 -6.828125q-2.125 -2.421875 -5.75 -2.421875zm34.156235 25.59375q3.09375 0 5.40625 -1.875q2.3125 -1.875 2.5625 -4.6875l5.46875 0q-0.15625 2.90625 -2.0 5.53125q-1.84375 2.625 -4.921875 4.1875q-3.078125 1.5625 -6.515625 1.5625q-6.9062347 0 -10.98436 -4.609375q-4.078125 -4.609375 -4.078125 -12.609375l0 -0.96875q0 -4.9375 1.8125 -8.78125q1.8125 -3.84375 5.203125 -5.96875q3.390625 -2.125 8.01561 -2.125q5.6875 0 9.453125 3.40625q3.765625 3.40625 4.015625 8.84375l-5.46875 0q-0.25 -3.28125 -2.484375 -5.390625q-2.234375 -2.109375 -5.515625 -2.109375q-4.4062347 0 -6.8281097 3.171875q-2.421875 3.171875 -2.421875 9.171875l0 1.09375q0 5.84375 2.40625 9.0q2.40625 3.15625 6.8749847 3.15625zm27.78125 -37.90625l0 8.1875l6.3125 0l0 4.46875l-6.3125 0l0 20.96875q0 2.03125 0.84375 3.046875q0.84375 1.015625 2.875 1.015625q1.0 0 2.75 -0.375l0 4.6875q-2.28125 0.625 -4.4375 0.625q-3.875 0 -5.84375 -2.34375q-1.96875 -2.34375 -1.96875 -6.65625l0 -20.96875l-6.15625 0l0 -4.46875l6.15625 0l0 -8.1875l5.78125 0zm32.75 33.03125q0 -2.34375 -1.765625 -3.640625q-1.765625 -1.296875 -6.15625 -2.234375q-4.390625 -0.9375 -6.96875 -2.25q-2.578125 -1.3125 -3.8125 -3.125q-1.234375 -1.8125 -1.234375 -4.3125q0 -4.15625 3.515625 -7.03125q3.515625 -2.875 8.984375 -2.875q5.75 0 9.328125 2.96875q3.578125 2.96875 3.578125 7.59375l-5.8125 0q0 -2.375 -2.015625 -4.09375q-2.015625 -1.71875 -5.078125 -1.71875q-3.15625 0 -4.9375 1.375q-1.78125 1.375 -1.78125 3.59375q0 2.09375 1.65625 3.15625q1.65625 1.0625 5.984375 2.03125q4.328125 0.96875 7.015625 2.3125q2.6875 1.34375 3.984375 3.234375q1.296875 1.890625 1.296875 4.609375q0 4.53125 -3.625 7.265625q-3.625 2.734375 -9.40625 2.734375q-4.0625 0 -7.1875 -1.4375q-3.125 -1.4375 -4.890625 -4.015625q-1.765625 -2.578125 -1.765625 -5.578125l5.78125 0q0.15625 2.90625 2.328125 4.609375q2.171875 1.703125 5.734375 1.703125q3.28125 0 5.265625 -1.328125q1.984375 -1.328125 1.984375 -3.546875z" fill-rule="nonzero"/></g></svg>